<svg xmlns="http://www.w3.org/2000/svg" viewBox="0 0 80 80" fill="none">
  <defs>
    <linearGradient id="fire-grad" x1="50%" y1="100%" x2="50%" y2="0%">
      <stop offset="0%" style="stop-color:#FF5722"/>
      <stop offset="50%" style="stop-color:#FF9800"/>
      <stop offset="100%" style="stop-color:#FFEB3B"/>
    </linearGradient>
    <linearGradient id="fire-inner" x1="50%" y1="100%" x2="50%" y2="0%">
      <stop offset="0%" style="stop-color:#FF9800"/>
      <stop offset="100%" style="stop-color:#FFEB3B"/>
    </linearGradient>
  </defs>
  <path d="M40 8C40 8 25 25 25 45C25 55 32 70 40 72C48 70 55 55 55 45C55 25 40 8 40 8Z" fill="url(#fire-grad)"/>
  <path d="M40 30C40 30 32 40 32 52C32 58 36 66 40 68C44 66 48 58 48 52C48 40 40 30 40 30Z" fill="url(#fire-inner)"/>
  <ellipse cx="40" cy="58" rx="5" ry="8" fill="#FFEB3B"/>
</svg>
