<svg xmlns="http://www.w3.org/2000/svg" viewBox="0 0 80 80" fill="none">
  <defs>
    <linearGradient id="party-grad" x1="0%" y1="0%" x2="100%" y2="100%">
      <stop offset="0%" style="stop-color:#E91E63"/>
      <stop offset="50%" style="stop-color:#9C27B0"/>
      <stop offset="100%" style="stop-color:#673AB7"/>
    </linearGradient>
  </defs>
  <path d="M20 70L30 20L50 30L20 70Z" fill="url(#party-grad)"/>
  <path d="M28 40L35 25L45 30L28 40Z" fill="#FFD54F"/>
  <circle cx="55" cy="20" r="4" fill="#FF5722"/>
  <circle cx="65" cy="35" r="3" fill="#4CAF50"/>
  <circle cx="60" cy="50" r="3" fill="#2196F3"/>
  <circle cx="45" cy="15" r="2" fill="#FFEB3B"/>
  <circle cx="70" cy="25" r="2" fill="#E91E63"/>
  <rect x="50" y="40" width="6" height="3" rx="1" fill="#FF9800" transform="rotate(15 53 41)"/>
  <rect x="58" y="55" width="5" height="2" rx="1" fill="#9C27B0" transform="rotate(-20 60 56)"/>
  <path d="M35 15L38 8L41 15L38 12L35 15Z" fill="#FFEB3B"/>
  <path d="M62 12L65 5L68 12L65 9L62 12Z" fill="#4CAF50"/>
</svg>
