<svg xmlns="http://www.w3.org/2000/svg" viewBox="0 0 512 512">
  <defs>
    <linearGradient id="g" x1="0%" y1="0%" x2="100%" y2="100%">
      <stop offset="0%" stop-color="#6366f1"/>
      <stop offset="50%" stop-color="#8b5cf6"/>
      <stop offset="100%" stop-color="#a855f7"/>
    </linearGradient>
  </defs>
  <circle cx="256" cy="256" r="246" fill="url(#g)"/>
  <circle cx="256" cy="256" r="215" fill="none" stroke="rgba(255,255,255,0.15)" stroke-width="10"/>
  <!-- 5 as path -->
  <path d="M195 160h122v35h-82v45c8-5 20-8 35-8c50 0 80 35 80 85c0 55-40 95-100 95c-45 0-80-25-90-65l40-15c8 25 28 40 55 40c35 0 55-25 55-55c0-32-22-52-55-52c-20 0-35 8-45 20l-35-15v-110z" fill="white"/>
</svg>
